<svg height="512pt" viewBox="-30 0 512 512" width="512pt" xmlns="http://www.w3.org/2000/svg"><g fill="#020202"><path d="m0 376c0 22.054688 17.945312 40 40 40 11.761719 0 22.589844-5.058594 30.058594-13.613281l116.878906 61.089843c-.609375 2.792969-.9375 5.65625-.9375 8.523438 0 22.054688 17.945312 40 40 40s40-17.945312 40-40c0-2.867188-.328125-5.730469-.9375-8.527344l116.882812-61.089844c7.472657 8.5625 18.300782 13.617188 30.054688 13.617188 22.054688 0 40-17.945312 40-40 0-18.605469-12.765625-34.28125-30-38.734375v-36.265625c0-5.523438-4.476562-10-10-10s-10 4.476562-10 10v36.269531c-6.289062 1.621094-12.089844 4.75-16.894531 9.121094l-70.613281-43.792969c7.546874-14.292968 11.507812-30.210937 11.507812-46.597656s-3.960938-32.304688-11.507812-46.597656l70.613281-43.796875c4.808593 4.375 10.605469 7.503906 16.894531 9.125v36.269531c0 5.523438 4.476562 10 10 10s10-4.476562 10-10v-36.265625c17.234375-4.453125 30-20.128906 30-38.734375 0-22.054688-17.945312-40-40-40-11.753906 0-22.582031 5.054688-30.054688 13.617188l-116.882812-61.089844c.609375-2.796875.9375-5.660156.9375-8.527344 0-22.054688-17.945312-40-40-40s-40 17.945312-40 40c0 2.867188.324219 5.730469.9375 8.527344l-116.882812 61.089844c-7.472657-8.5625-18.300782-13.617188-30.054688-13.617188-22.054688 0-40 17.945312-40 40 0 18.605469 12.765625 34.28125 30 38.734375v162.53125c-17.234375 4.453125-30 20.128906-30 38.734375zm40 20c-11.027344 0-20-8.972656-20-20s8.972656-20 20-20c11.074219 0 20 9 20 20 0 10.945312-8.820312 20-20 20zm26.894531-230.394531 70.613281 43.796875c-7.546874 14.292968-11.507812 30.210937-11.507812 46.597656s3.960938 32.308594 11.507812 46.597656l-70.613281 43.796875c-4.808593-4.375-10.605469-7.503906-16.894531-9.125v-162.539062c6.289062-1.621094 12.089844-4.75 16.894531-9.125zm149.105469-86.878907v77.777344c-26.414062 2.636719-50.636719 15.640625-67.4375 36.21875l-70.710938-43.855468c1.402344-4.113282 2.148438-8.445313 2.148438-12.867188 0-2.867188-.328125-5.730469-.9375-8.527344l116.878906-61.089844c5.292969 6.0625 12.261719 10.351563 20.058594 12.34375zm40.058594-12.339843 116.878906 61.085937c-.613281 2.796875-.9375 5.660156-.9375 8.527344 0 4.421875.746094 8.753906 2.148438 12.867188l-70.710938 43.855468c-16.804688-20.578125-41.027344-33.582031-67.4375-36.21875v-77.777344c7.800781-1.992187 14.773438-6.285156 20.058594-12.339843zm116.878906 318.140625-116.882812 61.089844c-5.289063-6.0625-12.257813-10.351563-20.054688-12.34375v-77.78125c27.351562-2.71875 51.289062-16.429688 67.4375-36.214844l70.710938 43.855468c-1.402344 4.113282-2.148438 8.445313-2.148438 12.867188 0 2.871094.328125 5.734375.9375 8.527344zm-176.996094 61.085937-116.878906-61.089843c.609375-2.792969.9375-5.65625.9375-8.523438 0-4.421875-.746094-8.753906-2.148438-12.867188l70.710938-43.855468c16.144531 19.777344 40.078125 33.496094 67.4375 36.214844v77.78125c-7.800781 1.992187-14.769531 6.285156-20.058594 12.339843zm30.058594-109.613281c-13.671875 0-26.9375-3.441406-38.742188-9.996094 4.4375-17.464844 20.148438-30.003906 38.742188-30.003906s34.304688 12.539062 38.742188 30.003906c-11.800782 6.554688-25.066407 9.996094-38.742188 9.996094zm55.652344-22.546875c-8.910156-22.1875-30.53125-37.453125-55.652344-37.453125s-46.742188 15.265625-55.652344 37.453125c-15.105468-14.625-24.347656-34.960937-24.347656-57.453125 0-44.191406 35.804688-80 80-80 44.175781 0 80 35.796875 80 80 0 21.429688-8.476562 42.085938-24.347656 57.453125zm-55.652344 178.546875c-11.027344 0-20-8.972656-20-20 0-10.960938 8.839844-20 20-20 11.394531 0 20 9.289062 20 20 0 11.027344-8.972656 20-20 20zm186-136c11.027344 0 20 8.972656 20 20s-8.972656 20-20 20c-11.296875 0-20-9.1875-20-20 0-10.992188 8.910156-20 20-20zm0-240c11.027344 0 20 8.972656 20 20s-8.972656 20-20 20c-11.082031 0-20-9-20-20 0-10.714844 8.605469-20 20-20zm-186-96c11.027344 0 20 8.972656 20 20 0 10.960938-8.839844 20-20 20-11.394531 0-20-9.289062-20-20 0-11.027344 8.972656-20 20-20zm-206 116c0-11.027344 8.972656-20 20-20 11.394531 0 20 9.289062 20 20 0 10.992188-8.910156 20-20 20-11.027344 0-20-8.972656-20-20zm0 0"/><path d="m266 236c0-22.054688-17.945312-40-40-40s-40 17.945312-40 40 17.945312 40 40 40 40-17.945312 40-40zm-40 20c-11.027344 0-20-8.972656-20-20s8.972656-20 20-20 20 8.972656 20 20-8.972656 20-20 20zm0 0"/><path d="m422 256c0 5.523438-4.476562 10-10 10s-10-4.476562-10-10 4.476562-10 10-10 10 4.476562 10 10zm0 0"/></g></svg>