<?xml version="1.0" standalone="no"?>
<!DOCTYPE svg PUBLIC "-//W3C//DTD SVG 20010904//EN"
 "http://www.w3.org/TR/2001/REC-SVG-20010904/DTD/svg10.dtd">
<svg version="1.0" xmlns="http://www.w3.org/2000/svg"
 width="512.000000pt" height="512.000000pt" viewBox="0 0 512.000000 512.000000"
 preserveAspectRatio="xMidYMid meet">

<g transform="translate(0.000000,512.000000) scale(0.100000,-0.100000)"
fill="#000000" stroke="none">
<path d="M2475 5092 c-126 -71 -2403 -1478 -2428 -1500 -52 -49 -60 -140 -16
-196 47 -60 -147 -56 2529 -56 2676 0 2482 -4 2529 56 44 56 36 146 -16 196
-27 25 -2364 1468 -2443 1508 -53 27 -96 25 -155 -8z m255 -875 c101 -53 107
-190 11 -254 -31 -21 -45 -23 -180 -23 -128 0 -150 3 -179 20 -99 61 -95 203
8 257 38 20 57 23 170 23 113 0 132 -3 170 -23z"/>
<path d="M362 2931 c3 -105 4 -111 32 -140 15 -16 40 -34 55 -40 18 -8 635
-10 2128 -9 l2103 3 37 38 38 37 3 110 4 110 -2202 0 -2202 0 4 -109z"/>
<path d="M560 1720 l0 -720 300 0 300 0 -2 718 -3 717 -297 3 -298 2 0 -720z"/>
<path d="M1690 1720 l0 -720 300 0 300 0 0 720 0 720 -300 0 -300 0 0 -720z"/>
<path d="M2830 1720 l0 -720 300 0 300 0 0 720 0 720 -300 0 -300 0 0 -720z"/>
<path d="M3967 2433 c-4 -3 -7 -327 -7 -720 l0 -713 300 0 300 0 0 720 0 720
-293 0 c-162 0 -297 -3 -300 -7z"/>
<path d="M76 676 c-71 -43 -75 -60 -76 -324 0 -266 5 -289 78 -330 l40 -22
2441 0 c2428 0 2442 0 2481 20 26 13 47 34 60 60 18 36 20 58 20 270 0 212 -2
234 -20 270 -13 26 -34 47 -60 60 -39 20 -53 20 -2482 20 l-2443 0 -39 -24z"/>
</g>
</svg>
