<?xml version="1.0" standalone="no"?>
<!DOCTYPE svg PUBLIC "-//W3C//DTD SVG 20010904//EN"
 "http://www.w3.org/TR/2001/REC-SVG-20010904/DTD/svg10.dtd">
<svg version="1.0" xmlns="http://www.w3.org/2000/svg"
 width="512.000000pt" height="512.000000pt" viewBox="0 0 512.000000 512.000000"
 preserveAspectRatio="xMidYMid meet">

<g transform="translate(0.000000,512.000000) scale(0.100000,-0.100000)"
fill="#000000" stroke="none">
<path d="M2370 5105 c-407 -57 -759 -292 -979 -654 -154 -254 -220 -581 -175
-878 50 -342 219 -644 479 -860 45 -37 48 -42 30 -49 -392 -142 -680 -318
-963 -590 -353 -338 -598 -757 -724 -1238 -26 -100 -32 -140 -32 -231 0 -95 4
-121 28 -190 65 -187 203 -324 391 -387 l70 -23 871 0 870 0 41 27 c62 41 88
90 88 168 0 78 -26 127 -88 168 l-41 27 -845 5 c-771 5 -849 6 -877 22 -65 35
-114 115 -114 186 0 35 47 214 86 327 70 202 214 461 353 635 29 36 98 111
153 168 595 606 1468 816 2277 546 58 -20 171 -67 251 -106 80 -38 163 -72
186 -75 91 -12 183 51 210 143 14 49 14 59 0 108 -11 38 -27 64 -55 89 -44 39
-243 139 -376 188 -49 18 -94 36 -98 39 -4 4 18 28 50 54 32 27 91 84 131 129
484 535 463 1355 -48 1867 -303 303 -726 444 -1150 385z m373 -406 c193 -39
354 -125 493 -263 139 -140 224 -299 264 -496 65 -313 -46 -655 -285 -878 -84
-79 -137 -115 -248 -167 -272 -129 -573 -124 -842 12 -309 157 -505 464 -522
818 -12 262 90 519 281 711 230 229 548 327 859 263z"/>
<path d="M4394 2169 c-68 -19 -134 -113 -134 -189 0 -70 20 -101 152 -236
l130 -133 -624 -4 c-690 -4 -661 -1 -815 -72 -222 -102 -383 -294 -449 -535
-28 -100 -25 -300 4 -405 73 -257 260 -461 500 -546 161 -56 310 -63 382 -15
60 39 85 89 85 167 0 54 -5 72 -27 106 -39 59 -82 82 -178 94 -149 18 -245 71
-314 172 -165 242 -32 573 253 627 32 6 282 10 629 10 l575 0 -141 -144 c-116
-118 -143 -151 -152 -187 -24 -89 7 -173 84 -227 33 -23 50 -27 105 -27 89 0
108 14 362 271 166 168 212 221 238 273 79 156 77 327 -7 479 -38 70 -443 476
-506 507 -51 26 -98 30 -152 14z"/>
</g>
</svg>
