<svg height="512" viewBox="0 0 64 64" width="512" xmlns="http://www.w3.org/2000/svg"><g id="Skill-3" fill="red" data-name="Skill"><path d="m59 2h-10a3 3 0 0 0 -3 3v10a3 3 0 0 0 3 3h10a3 3 0 0 0 3-3v-10a3 3 0 0 0 -3-3zm1 13a1 1 0 0 1 -1 1h-10a1 1 0 0 1 -1-1v-10a1 1 0 0 1 1-1h10a1 1 0 0 1 1 1z"/><path d="m55 9h2v2h-2z"/><path d="m51 9h2v2h-2z"/><path d="m5 18h10a3 3 0 0 0 3-3v-10a3 3 0 0 0 -3-3h-10a3 3 0 0 0 -3 3v10a3 3 0 0 0 3 3zm-1-13a1 1 0 0 1 1-1h10a1 1 0 0 1 1 1v10a1 1 0 0 1 -1 1h-10a1 1 0 0 1 -1-1z"/><path d="m11 9h2v2h-2z"/><path d="m7 9h2v2h-2z"/><path d="m59 46h-10a3 3 0 0 0 -3 3v10a3 3 0 0 0 3 3h10a3 3 0 0 0 3-3v-10a3 3 0 0 0 -3-3zm1 13a1 1 0 0 1 -1 1h-10a1 1 0 0 1 -1-1v-10a1 1 0 0 1 1-1h10a1 1 0 0 1 1 1z"/><path d="m55 53h2v2h-2z"/><path d="m51 53h2v2h-2z"/><path d="m15 46h-10a3 3 0 0 0 -3 3v10a3 3 0 0 0 3 3h10a3 3 0 0 0 3-3v-10a3 3 0 0 0 -3-3zm1 13a1 1 0 0 1 -1 1h-10a1 1 0 0 1 -1-1v-10a1 1 0 0 1 1-1h10a1 1 0 0 1 1 1z"/><path d="m11 53h2v2h-2z"/><path d="m7 53h2v2h-2z"/><path d="m49.586 37 3.414 3.414v3.586h2v-4a1 1 0 0 0 -.293-.707l-4-4a1 1 0 0 0 -.707-.293h-3.328a14.908 14.908 0 0 0 .328-3 15.059 15.059 0 0 0 -.3-3h3.3a1 1 0 0 0 .707-.293l4-4a1 1 0 0 0 .293-.707v-4h-2v3.586l-3.414 3.414h-3.461a14.976 14.976 0 0 0 -28.25 0h-3.461l-3.414-3.414v-3.586h-2v4a1 1 0 0 0 .293.707l4 4a1 1 0 0 0 .707.293h3.3a15.059 15.059 0 0 0 -.3 3 14.908 14.908 0 0 0 .328 3h-3.328a1 1 0 0 0 -.707.293l-4 4a1 1 0 0 0 -.293.707v4h2v-3.586l3.414-3.414h3.461a14.978 14.978 0 0 0 28.25 0zm-11.142.623a6.882 6.882 0 0 0 -3.444-1.553v-1.1a4.992 4.992 0 0 0 1.9-2.96 2.742 2.742 0 0 1 .858.085 2.993 2.993 0 0 1 .69 5.524zm-5.444-1.037-1 1-1-1v-.686a5 5 0 0 0 2 0zm-1-2.586a3 3 0 0 1 -3-3v-1h.343a4.966 4.966 0 0 0 3.535-1.464l.122-.122.707.707a2.981 2.981 0 0 0 1.293.764v1.115a3 3 0 0 1 -3 3zm5-5a1 1 0 0 0 -1-1h-.172a1.009 1.009 0 0 1 -.707-.293l-1.414-1.414a1 1 0 0 0 -1.414 0l-.829.829a3.02 3.02 0 0 1 -2.121.878h-1.343a1 1 0 0 0 -1 1v-1a5.009 5.009 0 0 1 5-5 5.006 5.006 0 0 1 5 5zm-10.729 3.093a2.653 2.653 0 0 1 .831-.085 4.992 4.992 0 0 0 1.898 2.966v1.1a6.886 6.886 0 0 0 -3.445 1.553 2.993 2.993 0 0 1 .716-5.53zm-1.265 10.847a4.955 4.955 0 0 1 4.617-4.9l1.67 1.67a1 1 0 0 0 1.414 0l1.67-1.67a4.955 4.955 0 0 1 4.617 4.9 12.9 12.9 0 0 1 -13.988 0zm15.831-1.429a6.9 6.9 0 0 0 -1.016-2.4 4.986 4.986 0 0 0 -.821-8.691v-2.42a7.008 7.008 0 0 0 -7-7 7.008 7.008 0 0 0 -7 7v2.422a4.984 4.984 0 0 0 -.821 8.692 6.908 6.908 0 0 0 -1.016 2.4 12.954 12.954 0 0 1 -3.142-4.514h.979v-2h-1.642a12.663 12.663 0 0 1 0-6h1.642v-2h-1a13 13 0 0 1 24 0h-1v2h1.637a12.663 12.663 0 0 1 .005 6h-1.642v2h.979a12.95 12.95 0 0 1 -3.142 4.511z"/></g></svg>