<svg id="Layer_1" enable-background="new 0 0 511.697 511.697" height="512" viewBox="0 0 511.697 511.697" width="512" xmlns="http://www.w3.org/2000/svg"><g fill="red"><path d="m366.521 174.107c2.929 2.929 6.768 4.394 10.606 4.394s7.678-1.465 10.606-4.393c5.858-5.858 5.858-15.355 0-21.213l-24.106-24.107v-37.788c0-8.284-6.716-15-15-15s-15 6.716-15 15v44c0 3.978 1.58 7.793 4.394 10.606z"/><path d="m292.424 257.701c17.567 8.073 36.751 12.299 56.204 12.299 74.439 0 135-60.561 135-135s-60.561-135-135-135c-70.549 0-128.623 54.4-134.501 123.453-6.09-1.131-12.366-1.728-18.778-1.728-56.594 0-102.637 46.043-102.637 102.637 0 35.091 17.705 66.12 44.647 84.637h-33.379c-41.857 0-75.911 34.179-75.911 76.19v111.507c0 8.284 6.716 15 15 15s15-6.716 15-15v-111.506c0-25.47 20.596-46.19 45.911-46.19h72.914l-34.149 87.287c-1.919 4.906-1.125 10.458 2.094 14.629l38.634 50.063c2.84 3.68 7.226 5.836 11.875 5.836s9.035-2.156 11.875-5.836l38.634-50.063c3.218-4.17 4.013-9.723 2.094-14.629l-34.148-87.287h72.913c25.316 0 45.912 20.721 45.912 46.19v111.5c0 8.284 6.716 15 15 15s15-6.716 15-15v-111.5c0-42.012-34.054-76.19-75.912-76.19h-33.377c17.986-12.362 31.853-30.298 39.085-51.299zm-97.075 199.561-21.572-27.953 21.572-55.138 21.572 55.138zm138.333-426.194c.548 7.785 7.022 13.935 14.946 13.935s14.398-6.15 14.946-13.935c45.959 6.579 82.406 43.026 88.985 88.985-7.785.549-13.934 7.022-13.934 14.946s6.15 14.397 13.934 14.946c-6.579 45.959-43.026 82.407-88.985 88.985-.549-7.785-7.022-13.934-14.946-13.934-7.919 0-14.388 6.141-14.945 13.917-12.515-1.807-24.632-5.868-35.728-12.019.021-.842.032-1.686.032-2.533 0-33.57-16.201-63.427-41.195-82.165 1.171-2.137 1.84-4.589 1.84-7.198 0-7.924-6.15-14.397-13.934-14.946 6.577-45.957 43.024-82.405 88.984-88.984zm-210.971 193.295c0-40.052 32.585-72.637 72.637-72.637 40.053 0 72.638 32.585 72.638 72.637s-32.585 72.637-72.637 72.637c-40.053 0-72.638-32.585-72.638-72.637z"/></g></svg>