<?xml version="1.0" standalone="no"?>
<!DOCTYPE svg PUBLIC "-//W3C//DTD SVG 20010904//EN"
 "http://www.w3.org/TR/2001/REC-SVG-20010904/DTD/svg10.dtd">
<svg version="1.0" xmlns="http://www.w3.org/2000/svg"
 width="512.000000pt" height="512.000000pt" viewBox="0 0 512.000000 512.000000"
 preserveAspectRatio="xMidYMid meet">

<g transform="translate(0.000000,512.000000) scale(0.100000,-0.100000)"
fill="#000000" stroke="none">
<path d="M965 4650 c-112 -23 -219 -84 -289 -166 -62 -72 -116 -206 -116 -286
l0 -38 -61 0 c-228 0 -426 -154 -484 -377 -23 -87 -22 -2850 0 -2938 24 -93
64 -165 130 -231 64 -64 122 -101 207 -131 51 -17 131 -18 1928 -18 l1875 0
66 23 c163 56 273 172 323 341 9 30 16 72 16 93 l0 38 61 0 c228 0 426 154
484 377 23 87 22 2850 0 2938 -44 171 -156 294 -330 361 -49 18 -99 19 -1910
20 -1023 1 -1878 -2 -1900 -6z m3748 -246 c51 -17 116 -74 144 -126 16 -30 18
-67 21 -363 l2 -330 -157 -203 -158 -204 -5 304 c-5 286 -7 306 -28 360 -45
112 -130 206 -237 261 -115 60 -16 57 -1836 57 l-1668 0 6 38 c16 102 85 183
183 213 14 4 849 8 1856 8 1644 1 1835 -1 1877 -15z m-527 -506 c47 -26 95
-77 118 -128 20 -43 21 -61 21 -410 l0 -365 -425 -6 c-476 -6 -479 -7 -630
-81 -167 -82 -304 -257 -345 -443 -22 -96 -17 -274 10 -350 80 -234 253 -397
483 -456 68 -17 113 -19 488 -19 l412 0 7 -172 c11 -262 3 -565 -17 -609 -22
-50 -74 -106 -122 -132 l-41 -22 -1845 -3 c-2058 -3 -1901 -8 -1979 68 -84 81
-76 -71 -79 1525 -2 1299 -1 1424 14 1464 23 60 70 110 129 138 l50 23 1860
-3 c1738 -2 1862 -3 1891 -19z m694 -1066 l0 -358 -176 -230 c-96 -126 -199
-252 -229 -280 -90 -87 -95 -87 -511 -92 -207 -2 -393 1 -433 7 -249 34 -419
255 -381 498 28 183 176 334 357 363 32 6 228 10 435 10 405 0 441 3 547 51
106 48 155 93 293 272 50 64 93 117 95 117 1 0 3 -161 3 -358z m-16 -1471
c-38 -99 -130 -161 -241 -161 l-63 0 0 261 0 261 69 64 c37 35 108 115 157
178 l89 116 3 -338 c2 -293 0 -343 -14 -381z"/>
<path d="M3510 2412 c-78 -38 -87 -144 -17 -194 31 -22 40 -23 215 -23 l184 0
34 37 c38 42 45 88 19 137 -26 51 -65 61 -242 61 -130 0 -164 -3 -193 -18z"/>
</g>
</svg>
